<?xml version="1.0" encoding="UTF-8"?><svg xmlns="http://www.w3.org/2000/svg" width="260" height="224" version="1.0" shape-rendering="geometricPrecision"><defs><style type="text/css">@font-face {
  font-family: sans-serif;
}</style><filter id="shadowBlur" x="0" y="0" width="200%" height="200%"><feOffset in="SourceGraphic" dx="3.0003002" dy="3.0003002" result="offOut"></feOffset><feGaussianBlur in="offOut" stdDeviation="3"></feGaussianBlur></filter></defs><g stroke-width="1" stroke-linecap="square" stroke-linejoin="round"><rect x="0" y="0" width="260" height="224" style="fill: #ffffff"></rect><path stroke="#969696" fill="#969696" filter="url(#shadowBlur)" d="M25.0 63.0 L115.0 63.0 L115.0 119.0 Q85.0 112.0 70.0 119.0 Q55.0 126.0 25.0 119.0 z"></path><path stroke="white" stroke-width="1.0" stroke-linecap="round" stroke-linejoin="round" fill="#ffffff" d="M155.0 63.0 C168.0 70.0 222.0 70.0 235.0 63.0 C222.0 56.0 168.0 56.0 155.0 63.0 M155.0 63.0 L155.0 119.0 C168.0 129.0 222.0 129.0 235.0 119.0 L235.0 63.0 "></path><path stroke="#000000" stroke-width="1.0" stroke-linecap="round" stroke-linejoin="round" fill="none" d="M155.0 63.0 C168.0 70.0 222.0 70.0 235.0 63.0 C222.0 56.0 168.0 56.0 155.0 63.0 M155.0 63.0 L155.0 119.0 C168.0 129.0 222.0 129.0 235.0 119.0 L235.0 63.0 "></path><path stroke="#000000" stroke-width="1.0" stroke-linecap="round" stroke-linejoin="round" fill="white" d="M25.0 63.0 L115.0 63.0 L115.0 119.0 Q85.0 112.0 70.0 119.0 Q55.0 126.0 25.0 119.0 z"></path><path stroke="#000000" stroke-width="1.0" stroke-linecap="round" stroke-linejoin="round" fill="none" d="M75.0 119.0 L75.0 154.0 Q75.0 161.0 80.0 161.0 L190.0 161.0 L190.0 161.0 Q195.0 161.0 195.0 154.0 L195.0 133.0 L195.0 133.0 "></path><path stroke="none" stroke-width="1.0" stroke-linecap="round" stroke-linejoin="round" fill="#000000" d="M195.0 126.0 L190.0 140.0 L200.0 140.0 z"></path><path stroke="#000000" stroke-width="1.0" stroke-dasharray="5.000000,5.000000" stroke-miterlimit="0" stroke-linecap="butt" stroke-linejoin="round" fill="white" d="M135.0 35.0 L135.0 147.0 "></path><path stroke="#000000" stroke-width="1.0" stroke-dasharray="5.000000,5.000000" stroke-miterlimit="0" stroke-linecap="butt" stroke-linejoin="round" fill="white" d="M135.0 189.0 L135.0 175.0 "></path><text x="31" y="82" font-family="sans-serif" font-size="16" stroke="none" fill="#000000"><![CDATA[Document]]></text><text x="165" y="82" font-family="sans-serif" font-size="16" stroke="none" fill="#000000"><![CDATA[Storage]]></text></g></svg>