<?xml version="1.0" encoding="UTF-8" standalone="no"?><svg xmlns="http://www.w3.org/2000/svg" xmlns:xlink="http://www.w3.org/1999/xlink" contentScriptType="application/ecmascript" contentStyleType="text/css" height="321px" preserveAspectRatio="none" style="width:79px;height:321px;" version="1.1" viewBox="0 0 79 321" width="79px" zoomAndPan="magnify"><defs><filter height="300%" id="f10ysjkfamzfrg" width="300%" x="-1" y="-1"><feGaussianBlur result="blurOut" stdDeviation="2.0"/><feColorMatrix in="blurOut" result="blurOut2" type="matrix" values="0 0 0 0 0 0 0 0 0 0 0 0 0 0 0 0 0 0 .4 0"/><feOffset dx="4.0" dy="4.0" in="blurOut2" result="blurOut3"/><feBlend in="SourceGraphic" in2="blurOut3" mode="normal"/></filter></defs><g><ellipse cx="37" cy="18" fill="#000000" filter="url(#f10ysjkfamzfrg)" rx="10" ry="10" style="stroke: none; stroke-width: 1.0;"/><rect fill="#FEFECE" filter="url(#f10ysjkfamzfrg)" height="33.5938" rx="12.5" ry="12.5" style="stroke: #A80036; stroke-width: 1.5;" width="55" x="9.5" y="68"/><text fill="#000000" font-family="sans-serif" font-size="12" lengthAdjust="spacingAndGlyphs" textLength="35" x="19.5" y="87.9902">Start</text><rect fill="#FEFECE" filter="url(#f10ysjkfamzfrg)" height="33.5938" rx="12.5" ry="12.5" style="stroke: #A80036; stroke-width: 1.5;" width="62" x="6" y="142"/><text fill="#000000" font-family="sans-serif" font-size="12" lengthAdjust="spacingAndGlyphs" textLength="42" x="16" y="161.9902">Middle</text><rect fill="#FEFECE" filter="url(#f10ysjkfamzfrg)" height="33.5938" rx="12.5" ry="12.5" style="stroke: #A80036; stroke-width: 1.5;" width="41" x="16.5" y="216"/><text fill="#000000" font-family="sans-serif" font-size="12" lengthAdjust="spacingAndGlyphs" textLength="21" x="26.5" y="235.9902">End</text><ellipse cx="37" cy="300" fill="none" filter="url(#f10ysjkfamzfrg)" rx="10" ry="10" style="stroke: #000000; stroke-width: 1.0;"/><ellipse cx="37.5" cy="300.5" fill="#000000" rx="6" ry="6" style="stroke: none; stroke-width: 1.0;"/><!--link start to Start--><path d="M37,28.1759 C37,37.3186 37,51.0626 37,62.7436 " fill="none" id="start-Start" style="stroke: #A80036; stroke-width: 1.0;"/><polygon fill="#A80036" points="37,67.9414,41,58.9414,37,62.9414,33,58.9414,37,67.9414" style="stroke: #A80036; stroke-width: 1.0;"/><!--link Start to Middle--><path d="M37,102.1631 C37,112.4368 37,125.6075 37,136.6831 " fill="none" id="Start-Middle" style="stroke: #A80036; stroke-width: 1.0;"/><polygon fill="#A80036" points="37,141.93,41,132.93,37,136.93,33,132.93,37,141.93" style="stroke: #A80036; stroke-width: 1.0;"/><!--link Middle to End--><path d="M37,176.1631 C37,186.4368 37,199.6075 37,210.6831 " fill="none" id="Middle-End" style="stroke: #A80036; stroke-width: 1.0;"/><polygon fill="#A80036" points="37,215.93,41,206.93,37,210.93,33,206.93,37,215.93" style="stroke: #A80036; stroke-width: 1.0;"/><!--link End to end--><path d="M37,250.2542 C37,260.9518 37,274.5657 37,284.8464 " fill="none" id="End-end" style="stroke: #A80036; stroke-width: 1.0;"/><polygon fill="#A80036" points="37,289.8855,41,280.8855,37,284.8855,33,280.8855,37,289.8855" style="stroke: #A80036; stroke-width: 1.0;"/><!--
@startuml

(*) - -> "Start"
- -> "Middle"
- -> "End"
- -> (*)

@enduml

PlantUML version 1.2018.01(Sun Jan 28 18:08:22 GMT 2018)
(APACHE source distribution)
Java Runtime: OpenJDK Runtime Environment
JVM: OpenJDK 64-Bit Server VM
Java Version: 1.8.0_171-b11
Operating System: Linux
OS Version: 4.9.93-linuxkit-aufs
Default Encoding: UTF-8
Language: en
Country: US
--></g></svg>