<?xml version="1.0" encoding="UTF-8"?><svg xmlns="http://www.w3.org/2000/svg" width="940" height="462" version="1.0" shape-rendering="geometricPrecision"><defs><style type="text/css">@font-face {
  font-family: sans-serif;
}</style><filter id="shadowBlur" x="0" y="0" width="200%" height="200%"><feOffset in="SourceGraphic" dx="3.0003002" dy="3.0003002" result="offOut"></feOffset><feGaussianBlur in="offOut" stdDeviation="3"></feGaussianBlur></filter></defs><g stroke-width="1" stroke-linecap="square" stroke-linejoin="round"><rect x="0" y="0" width="940" height="462" style="fill: #ffffff"></rect><path stroke="#969696" fill="#969696" filter="url(#shadowBlur)" d="M605.0 315.0 L605.0 399.0 L385.0 399.0 L385.0 315.0 z"></path><path stroke="#969696" fill="#969696" filter="url(#shadowBlur)" d="M385.0 189.0 L385.0 273.0 L605.0 273.0 L605.0 189.0 z"></path><path stroke="#969696" fill="#969696" filter="url(#shadowBlur)" d="M605.0 147.0 L605.0 63.0 L385.0 63.0 L385.0 147.0 z"></path><path stroke="#969696" fill="#969696" filter="url(#shadowBlur)" d="M265.0 147.0 L265.0 63.0 L55.0 63.0 L55.0 147.0 z"></path><path stroke="#969696" fill="#969696" filter="url(#shadowBlur)" d="M915.0 189.0 L915.0 273.0 L735.0 273.0 L735.0 189.0 z"></path><path stroke="#969696" fill="#969696" filter="url(#shadowBlur)" d="M735.0 315.0 L915.0 315.0 L915.0 399.0 Q855.0 389.0 825.0 399.0 Q795.0 409.0 735.0 399.0 z"></path><path stroke="#969696" fill="#969696" filter="url(#shadowBlur)" d="M520.0 105.0 Q525.0 105.0 525.0 112.0 L525.0 126.0 Q525.0 133.0 520.0 133.0 L450.0 133.0 L450.0 133.0 Q445.0 133.0 445.0 126.0 L445.0 112.0 L445.0 112.0 Q445.0 105.0 450.0 105.0 L520.0 105.0 z"></path><path stroke="#969696" fill="#969696" filter="url(#shadowBlur)" d="M550.0 105.0 Q545.0 105.0 545.0 112.0 L545.0 126.0 Q545.0 133.0 550.0 133.0 L580.0 133.0 L580.0 133.0 Q585.0 133.0 585.0 126.0 L585.0 112.0 L585.0 112.0 Q585.0 105.0 580.0 105.0 L550.0 105.0 z"></path><path stroke="white" stroke-width="1.0" stroke-linecap="round" stroke-linejoin="round" fill="#ffffff" d="M735.0 63.0 C765.0 70.0 885.0 70.0 915.0 63.0 C885.0 56.0 765.0 56.0 735.0 63.0 M735.0 63.0 L735.0 147.0 C765.0 157.0 885.0 157.0 915.0 147.0 L915.0 63.0 "></path><path stroke="#000000" stroke-width="1.0" stroke-linecap="round" stroke-linejoin="round" fill="none" d="M735.0 63.0 C765.0 70.0 885.0 70.0 915.0 63.0 C885.0 56.0 765.0 56.0 735.0 63.0 M735.0 63.0 L735.0 147.0 C765.0 157.0 885.0 157.0 915.0 147.0 L915.0 63.0 "></path><path stroke="#000000" stroke-width="1.0" stroke-dasharray="5.000000,5.000000" stroke-miterlimit="0" stroke-linecap="butt" stroke-linejoin="round" fill="white" d="M635.0 91.0 L635.0 42.0 Q635.0 35.0 630.0 35.0 L30.0 35.0 L30.0 35.0 Q25.0 35.0 25.0 42.0 L25.0 420.0 L25.0 420.0 Q25.0 427.0 30.0 427.0 L630.0 427.0 L630.0 427.0 Q635.0 427.0 635.0 420.0 L635.0 371.0 L635.0 371.0 "></path><path stroke="#000000" stroke-width="1.0" stroke-linecap="round" stroke-linejoin="round" fill="white" d="M605.0 315.0 L605.0 399.0 L385.0 399.0 L385.0 315.0 z"></path><path stroke="#000000" stroke-width="1.0" stroke-linecap="round" stroke-linejoin="round" fill="white" d="M385.0 189.0 L385.0 273.0 L605.0 273.0 L605.0 189.0 z"></path><path stroke="#000000" stroke-width="1.0" stroke-linecap="round" stroke-linejoin="round" fill="white" d="M605.0 147.0 L605.0 63.0 L385.0 63.0 L385.0 147.0 z"></path><path stroke="#000000" stroke-width="1.0" stroke-linecap="round" stroke-linejoin="round" fill="white" d="M265.0 147.0 L265.0 63.0 L55.0 63.0 L55.0 147.0 z"></path><path stroke="#000000" stroke-width="1.0" stroke-linecap="round" stroke-linejoin="round" fill="white" d="M915.0 189.0 L915.0 273.0 L735.0 273.0 L735.0 189.0 z"></path><path stroke="#000000" stroke-width="1.0" stroke-linecap="round" stroke-linejoin="round" fill="white" d="M735.0 315.0 L915.0 315.0 L915.0 399.0 Q855.0 389.0 825.0 399.0 Q795.0 409.0 735.0 399.0 z"></path><path stroke="#000000" stroke-width="1.0" stroke-linecap="round" stroke-linejoin="round" fill="none" d="M375.0 133.0 L345.0 133.0 L345.0 357.0 L385.0 357.0 "></path><path stroke="#000000" stroke-width="1.0" stroke-linecap="round" stroke-linejoin="round" fill="white" d="M520.0 105.0 Q525.0 105.0 525.0 112.0 L525.0 126.0 Q525.0 133.0 520.0 133.0 L450.0 133.0 L450.0 133.0 Q445.0 133.0 445.0 126.0 L445.0 112.0 L445.0 112.0 Q445.0 105.0 450.0 105.0 L520.0 105.0 z"></path><path stroke="#000000" stroke-width="1.0" stroke-linecap="round" stroke-linejoin="round" fill="white" d="M550.0 105.0 Q545.0 105.0 545.0 112.0 L545.0 126.0 Q545.0 133.0 550.0 133.0 L580.0 133.0 L580.0 133.0 Q585.0 133.0 585.0 126.0 L585.0 112.0 L585.0 112.0 Q585.0 105.0 580.0 105.0 L550.0 105.0 z"></path><path stroke="none" stroke-width="1.0" stroke-linecap="round" stroke-linejoin="round" fill="#000000" d="M370.0 98.0 L380.0 105.0 L370.0 112.0 z"></path><path stroke="none" stroke-width="1.0" stroke-linecap="round" stroke-linejoin="round" fill="#000000" d="M620.0 98.0 L610.0 105.0 L620.0 112.0 z"></path><path stroke="none" stroke-width="1.0" stroke-linecap="round" stroke-linejoin="round" fill="#000000" d="M720.0 98.0 L730.0 105.0 L720.0 112.0 z"></path><path stroke="none" stroke-width="1.0" stroke-linecap="round" stroke-linejoin="round" fill="#000000" d="M370.0 126.0 L380.0 133.0 L370.0 140.0 z"></path><path stroke="none" stroke-width="1.0" stroke-linecap="round" stroke-linejoin="round" fill="#000000" d="M495.0 154.0 L490.0 168.0 L500.0 168.0 z"></path><path stroke="none" stroke-width="1.0" stroke-linecap="round" stroke-linejoin="round" fill="#000000" d="M620.0 224.0 L610.0 231.0 L620.0 238.0 z"></path><path stroke="none" stroke-width="1.0" stroke-linecap="round" stroke-linejoin="round" fill="#000000" d="M620.0 350.0 L610.0 357.0 L620.0 364.0 z"></path><path stroke="#000000" stroke-width="1.0" stroke-linecap="round" stroke-linejoin="round" fill="none" d="M495.0 161.0 L495.0 189.0 "></path><path stroke="#000000" stroke-width="1.0" stroke-linecap="round" stroke-linejoin="round" fill="none" d="M725.0 105.0 L615.0 105.0 "></path><path stroke="#000000" stroke-width="1.0" stroke-dasharray="5.000000,5.000000" stroke-miterlimit="0" stroke-linecap="butt" stroke-linejoin="round" fill="white" d="M635.0 217.0 L635.0 119.0 "></path><path stroke="#000000" stroke-width="1.0" stroke-dasharray="5.000000,5.000000" stroke-miterlimit="0" stroke-linecap="butt" stroke-linejoin="round" fill="white" d="M635.0 245.0 L635.0 343.0 "></path><path stroke="#000000" stroke-width="1.0" stroke-linecap="round" stroke-linejoin="round" fill="none" d="M615.0 231.0 L735.0 231.0 "></path><path stroke="#000000" stroke-width="1.0" stroke-linecap="round" stroke-linejoin="round" fill="none" d="M735.0 357.0 L615.0 357.0 "></path><path stroke="#000000" stroke-width="1.0" stroke-linecap="round" stroke-linejoin="round" fill="none" d="M375.0 105.0 L265.0 105.0 "></path><text x="806" y="376" font-family="sans-serif" font-size="16" stroke="none" fill="#000000"><![CDATA[Test scripts]]></text><text x="49" y="418" font-family="sans-serif" font-size="16" stroke="none" fill="#000000"><![CDATA[Namespace cluster–tests]]></text><text x="410" y="222" font-family="sans-serif" font-size="16" stroke="none" fill="#000000"><![CDATA[ServiceAccount]]></text><text x="198" y="124" font-family="sans-serif" font-size="16" stroke="none" fill="#000000"><![CDATA[Nightly]]></text><text x="404" y="348" font-family="sans-serif" font-size="16" stroke="none" fill="#000000"><![CDATA[ConfigMap]]></text><text x="457" y="124" font-family="sans-serif" font-size="16" stroke="none" fill="#000000"><![CDATA[shunit2]]></text><text x="754" y="96" font-family="sans-serif" font-size="16" stroke="none" fill="#000000"><![CDATA[etcd]]></text><text x="401" y="96" font-family="sans-serif" font-size="15" stroke="none" fill="#000000"><![CDATA[Pod]]></text><text x="760" y="222" font-family="sans-serif" font-size="16" stroke="none" fill="#000000"><![CDATA[ClusterRole]]></text><text x="72" y="96" font-family="sans-serif" font-size="16" stroke="none" fill="#000000"><![CDATA[CronJob]]></text><text x="785" y="250" font-family="sans-serif" font-size="16" stroke="none" fill="#000000"><![CDATA[cluster–reader]]></text><text x="755" y="348" font-family="sans-serif" font-size="16" stroke="none" fill="#000000"><![CDATA[Git]]></text><text x="551" y="124" font-family="sans-serif" font-size="16" stroke="none" fill="#000000"><![CDATA[oc]]></text></g></svg>