<?xml version="1.0" encoding="UTF-8" standalone="no"?><svg xmlns="http://www.w3.org/2000/svg" xmlns:xlink="http://www.w3.org/1999/xlink" contentScriptType="application/ecmascript" contentStyleType="text/css" height="511px" preserveAspectRatio="none" style="width:445px;height:511px;" version="1.1" viewBox="0 0 445 511" width="445px" zoomAndPan="magnify"><defs><filter height="300%" id="f1hpdy846q53f5" width="300%" x="-1" y="-1"><feGaussianBlur result="blurOut" stdDeviation="2.0"/><feColorMatrix in="blurOut" result="blurOut2" type="matrix" values="0 0 0 0 0 0 0 0 0 0 0 0 0 0 0 0 0 0 .4 0"/><feOffset dx="4.0" dy="4.0" in="blurOut2" result="blurOut3"/><feBlend in="SourceGraphic" in2="blurOut3" mode="normal"/></filter></defs><g><ellipse cx="292.5" cy="18" fill="#000000" filter="url(#f1hpdy846q53f5)" rx="10" ry="10" style="stroke: none; stroke-width: 1.0;"/><rect fill="#FEFECE" filter="url(#f1hpdy846q53f5)" height="33.5938" rx="12.5" ry="12.5" style="stroke: #A80036; stroke-width: 1.5;" width="104" x="240.5" y="69"/><text fill="#000000" font-family="sans-serif" font-size="12" lengthAdjust="spacingAndGlyphs" textLength="84" x="250.5" y="88.9902">Screen press</text><polygon fill="#FEFECE" filter="url(#f1hpdy846q53f5)" points="292.5,144,304.5,156,292.5,168,280.5,156,292.5,144" style="stroke: #A80036; stroke-width: 1.5;"/><rect fill="#FEFECE" filter="url(#f1hpdy846q53f5)" height="33.5938" rx="12.5" ry="12.5" style="stroke: #A80036; stroke-width: 1.5;" width="139" x="6" y="222"/><text fill="#000000" font-family="sans-serif" font-size="12" lengthAdjust="spacingAndGlyphs" textLength="119" x="16" y="241.9902">Rotate left/right</text><rect fill="#FEFECE" filter="url(#f1hpdy846q53f5)" height="33.5938" rx="12.5" ry="12.5" style="stroke: #A80036; stroke-width: 1.5;" width="90" x="124.5" y="330"/><text fill="#000000" font-family="sans-serif" font-size="12" lengthAdjust="spacingAndGlyphs" textLength="70" x="134.5" y="349.9902">Accelerate</text><rect fill="#FEFECE" filter="url(#f1hpdy846q53f5)" height="33.5938" rx="12.5" ry="12.5" style="stroke: #A80036; stroke-width: 1.5;" width="48" x="340.5" y="276"/><text fill="#000000" font-family="sans-serif" font-size="12" lengthAdjust="spacingAndGlyphs" textLength="28" x="350.5" y="295.9902">Fire</text><rect fill="#FEFECE" filter="url(#f1hpdy846q53f5)" height="33.5938" rx="12.5" ry="12.5" style="stroke: #A80036; stroke-width: 1.5;" width="139" x="100" y="405"/><text fill="#000000" font-family="sans-serif" font-size="12" lengthAdjust="spacingAndGlyphs" textLength="119" x="110" y="424.9902">Screen press ends</text><ellipse cx="169.5" cy="490" fill="none" filter="url(#f1hpdy846q53f5)" rx="10" ry="10" style="stroke: #000000; stroke-width: 1.0;"/><ellipse cx="170" cy="490.5" fill="#000000" rx="6" ry="6" style="stroke: none; stroke-width: 1.0;"/><!--link start to DOWN--><path d="M292.5,28.0336 C292.5,37.4082 292.5,51.7285 292.5,63.7898 " fill="none" id="start-DOWN" style="stroke: #A80036; stroke-width: 1.0;"/><polygon fill="#A80036" points="292.5,68.7995,296.5,59.7995,292.5,63.7995,288.5,59.7995,292.5,68.7995" style="stroke: #A80036; stroke-width: 1.0;"/><!--link DOWN to #5--><path d="M292.5,103.3034 C292.5,114.1588 292.5,128.0963 292.5,138.9108 " fill="none" id="DOWN-#5" style="stroke: #A80036; stroke-width: 1.0;"/><polygon fill="#A80036" points="292.5,143.9417,296.5,134.9417,292.5,138.9417,288.5,134.9417,292.5,143.9417" style="stroke: #A80036; stroke-width: 1.0;"/><text fill="#000000" font-family="sans-serif" font-size="11" lengthAdjust="spacingAndGlyphs" textLength="0" x="290.8813" y="132.854"/><!--link #5 to MOVE--><path d="M282.0269,157.8337 C260.4578,161.8017 209.7291,172.1269 169.5,188 C147.8466,196.5437 124.8566,208.9513 107.0327,219.389 " fill="none" id="#5-MOVE" style="stroke: #A80036; stroke-width: 1.0;"/><polygon fill="#A80036" points="102.6164,221.9966,112.4,220.865,106.9219,219.4544,108.3325,213.9762,102.6164,221.9966" style="stroke: #A80036; stroke-width: 1.0;"/><text fill="#000000" font-family="sans-serif" font-size="11" lengthAdjust="spacingAndGlyphs" textLength="105" x="170.5" y="198.1577">move left/right</text><!--link #5 to THRUST--><path d="M292.682,167.9053 C292.9363,200.1346 291.9759,288.1299 274.5,310 C267.1219,319.2333 242.8289,328.089 219.4667,334.8206 " fill="none" id="#5-THRUST" style="stroke: #A80036; stroke-width: 1.0;"/><polygon fill="#A80036" points="214.502,336.2242,224.2508,337.6246,219.3134,334.8638,222.0741,329.9264,214.502,336.2242" style="stroke: #A80036; stroke-width: 1.0;"/><text fill="#000000" font-family="sans-serif" font-size="11" lengthAdjust="spacingAndGlyphs" textLength="70" x="292.5" y="242.1577">long press</text><!--link #5 to FIRE--><path d="M300.8302,160.0103 C317.6047,168.6157 355.0801,190.6479 369.5,222 C376.49,237.1978 374.689,256.1764 371.44,270.6874 " fill="none" id="#5-FIRE" style="stroke: #A80036; stroke-width: 1.0;"/><polygon fill="#A80036" points="370.191,275.8161,376.2071,268.0182,371.3741,270.9581,368.4343,266.1252,370.191,275.8161" style="stroke: #A80036; stroke-width: 1.0;"/><text fill="#000000" font-family="sans-serif" font-size="11" lengthAdjust="spacingAndGlyphs" textLength="77" x="356.5" y="198.1577">short press</text><!--link MOVE to THRUST--><path d="M56.8766,256.1778 C51.8788,261.9377 47.1342,268.7542 44.5,276 C39.337,290.2017 35.4575,297.8931 44.5,310 C53.7178,322.3416 88.4759,332.0198 119.0065,338.3775 " fill="none" id="MOVE-THRUST" style="stroke: #A80036; stroke-width: 1.0;"/><polygon fill="#A80036" points="124.257,339.4474,116.237,333.7308,119.3577,338.449,114.6395,341.5697,124.257,339.4474" style="stroke: #A80036; stroke-width: 1.0;"/><text fill="#000000" font-family="sans-serif" font-size="11" lengthAdjust="spacingAndGlyphs" textLength="98" x="45.5" y="296.1577">pause movement</text><!--link THRUST to MOVE--><path d="M167.3454,329.7369 C164.614,314.1455 158.5735,291.3567 145.5,276 C139.7109,269.1999 132.3517,263.4682 124.5922,258.7007 " fill="none" id="THRUST-MOVE" style="stroke: #A80036; stroke-width: 1.0;"/><polygon fill="#A80036" points="120.2476,256.1506,125.9844,264.1562,124.5596,258.6817,130.0341,257.2569,120.2476,256.1506" style="stroke: #A80036; stroke-width: 1.0;"/><text fill="#000000" font-family="sans-serif" font-size="11" lengthAdjust="spacingAndGlyphs" textLength="105" x="163.5" y="296.1577">move left/right</text><!--link MOVE to UP--><path d="M49.7036,256.3108 C43.5757,261.8174 37.8496,268.4653 34.5,276 C28.3615,289.8081 28.0756,296.3226 34.5,310 C54.1826,351.9038 98.096,383.5357 130.5206,402.3182 " fill="none" id="MOVE-UP" style="stroke: #A80036; stroke-width: 1.0;"/><polygon fill="#A80036" points="135.217,404.9958,129.3798,397.0631,130.8734,402.5192,125.4173,404.0128,135.217,404.9958" style="stroke: #A80036; stroke-width: 1.0;"/><!--link THRUST to UP--><path d="M169.5,364.0187 C169.5,374.5877 169.5,388.2879 169.5,399.7171 " fill="none" id="THRUST-UP" style="stroke: #A80036; stroke-width: 1.0;"/><polygon fill="#A80036" points="169.5,404.7891,173.5,395.7891,169.5,399.7891,165.5,395.7891,169.5,404.7891" style="stroke: #A80036; stroke-width: 1.0;"/><!--link FIRE to UP--><path d="M340.1974,309.0771 C304.6823,332.5717 238.6318,376.2666 199.932,401.868 " fill="none" id="FIRE-UP" style="stroke: #A80036; stroke-width: 1.0;"/><polygon fill="#A80036" points="195.352,404.8979,205.0651,403.2683,199.5221,402.1392,200.6512,396.5962,195.352,404.8979" style="stroke: #A80036; stroke-width: 1.0;"/><!--link UP to end--><path d="M169.5,439.1593 C169.5,450.0147 169.5,463.9343 169.5,474.4633 " fill="none" id="UP-end" style="stroke: #A80036; stroke-width: 1.0;"/><polygon fill="#A80036" points="169.5,479.626,173.5,470.626,169.5,474.626,165.5,470.626,169.5,479.626" style="stroke: #A80036; stroke-width: 1.0;"/><!--
@startuml

(*) - -> "Screen press" as DOWN
if "" then
-down->[move left/right] "Rotate left/right" as MOVE
else
-down->[long press] "Accelerate" as THRUST
else
-down->[short press] "Fire" as FIRE

MOVE - ->[pause movement] THRUST
THRUST - ->[move left/right] MOVE

MOVE - -> "Screen press ends" as UP
THRUST - -> UP
FIRE - -> UP

UP - -> (*)

@enduml

PlantUML version 1.2018.01(Sun Jan 28 18:08:22 GMT 2018)
(APACHE source distribution)
Java Runtime: OpenJDK Runtime Environment
JVM: OpenJDK 64-Bit Server VM
Java Version: 1.8.0_171-b11
Operating System: Linux
OS Version: 4.9.93-linuxkit-aufs
Default Encoding: UTF-8
Language: en
Country: US
--></g></svg>